<svg xmlns="http://www.w3.org/2000/svg" viewBox="0 0 28.37 21.13"><title>Asset 22</title><g id="Layer_2" data-name="Layer 2"><g id="Layer_1-2" data-name="Layer 1"><path d="M24.92,9.71V9.9a11.41,11.41,0,0,1-1.45,4.88c-1.09,1.74-4,6.35-10.29,6.35-4.28,0-7.44-1.06-9.71-3.23A11.77,11.77,0,0,1,0,10.72,24.12,24.12,0,0,1,.11,7.17,10.76,10.76,0,0,0,2.26,9a10.82,10.82,0,0,0,4.83,1.33h.24c1.26,0,3.58-.39,4.88-2.17a12.19,12.19,0,0,0,1.38-3A11.47,11.47,0,0,1,14.7,2.51C15.64,1.21,16.78,0,18.85,0a5.15,5.15,0,0,1,.54,0,5.84,5.84,0,0,1,4.17,2l.08.08A9.3,9.3,0,0,1,25,5.72l0,.17,3.31,1.65Z"/></g></g></svg>