<svg xmlns="http://www.w3.org/2000/svg" width="110.38" height="88.151" viewBox="0 0 110.38 88.151">
  <g id="Group_72" data-name="Group 72" transform="translate(-252 -432.997)">
    <path id="Path_46" data-name="Path 46" d="M312.46,446.974c.819.018,1.2-.428,1.5-1.167,1.487-3.589,3.056-7.145,4.556-10.729a2.891,2.891,0,0,1,5.556.02q6.684,15.871,13.391,31.735c.1.24.211.477.411.929.989-1.672,1.919-3.2,2.8-4.757.666-1.168,1.47-2.051,2.966-1.993,1.44.056,2.136.96,2.711,2.127q7.093,14.4,14.218,28.781c.409.827.748,1.751-.289,2.285-1.052.542-1.635-.126-2.107-1.086q-7.021-14.286-14.1-28.543c-.133-.27-.278-.534-.482-.926-.934,1.039-1.319,2.336-2.146,3.292-2.255,2.609-2.134,5.131-.6,8.164,2.124,4.2,3.74,8.652,5.574,13,.068.16.16.312.213.476.265.818.309,1.614-.653,1.98-.913.347-1.5-.128-1.852-.965q-2-4.77-4.011-9.539c-3.736-8.85-7.489-17.693-11.188-26.557a1.34,1.34,0,0,0-1.52-1.017,25.488,25.488,0,0,1-7.415-.785c-.972-.242-1.7-.668-1.438-1.775.279-1.185,1.238-1.071,2.12-.83a24.258,24.258,0,0,0,6.7.774l-6.087-14.453-14.126,33.136a34.608,34.608,0,0,1,8.242-2.306,22.849,22.849,0,0,1,12.5,2.171c.84.407,1.416.979.927,1.958s-1.276.866-2.123.455a19.848,19.848,0,0,0-16.169-.664c-1.6.589-3.538.824-4.674,1.9s-1.467,3.009-2.141,4.569q-1.223,2.828-2.43,5.66c-.4.926-.713,2.106-2.073,1.549s-.813-1.6-.4-2.552c1.2-2.8,2.389-5.615,3.643-8.565a15.79,15.79,0,0,1-5.156-.3,4.9,4.9,0,0,1-1.211-.477,1.176,1.176,0,0,1-.5-1.587l.007-.013a1.28,1.28,0,0,1,1.637-.769c.036.013.071.028.106.044a10.4,10.4,0,0,0,5.565.233,1.359,1.359,0,0,0,1.168-.873c.923-2.218,1.875-4.423,2.816-6.633a1.35,1.35,0,0,0,.109-1.125c-1.332-3.223-2.649-6.453-4.071-9.928-1.5,3.025-2.9,5.824-4.279,8.629q-4.173,8.459-8.331,16.925c-.444.9-1.048,1.491-2.054.966-.956-.5-.787-1.318-.378-2.153q2.59-5.287,5.151-10.591c.362-1.68,1.359-3.1,1.937-4.779a1.989,1.989,0,0,0-1.5-.069,12.682,12.682,0,0,1-5.81-.59,2.908,2.908,0,0,1-.944-.448,1.582,1.582,0,0,1-.629-2.065,1.5,1.5,0,0,1,1.912-.919l.025.009c.675.176,1.345.382,2.015.578a8.777,8.777,0,0,0,4.533-.1,4.785,4.785,0,0,0,3.875-3.124,19.974,19.974,0,0,1,1.511-3.054c1.476-2.649,4.253-2.747,5.777-.147.562.958.855.82,1.431.072a12.57,12.57,0,0,1,2.991-2.728A3.668,3.668,0,0,1,312.46,446.974Z" fill="#0d1945"/>
    <path id="Path_47" data-name="Path 47" d="M312.153,446.974c-2.665.865-4.089,2.888-5.8,4.994-.511-.279-.547-.788-.719-1.2a2.828,2.828,0,0,0-2.57-1.932,2.733,2.733,0,0,0-2.734,1.669c-.744,1.484-1.507,2.961-2.2,4.469a2.532,2.532,0,0,1-1.356,1.328,10.7,10.7,0,0,1-8.287.411c-.911-.33-1.794-.469-2.187.626-.42,1.172.412,1.633,1.366,1.952a13.962,13.962,0,0,0,7.241.443c.248-.049.488-.215.866.042l-2.729,5.306c-6.382-1.915-10.37-6.112-11.411-12.7a15.486,15.486,0,0,1,30.192-6.587C311.947,446.209,312.017,446.4,312.153,446.974Z" fill="#ff7f00"/>
    <path id="Path_48" data-name="Path 48" d="M323.434,518.926h36.151c.4,0,.79.009,1.186,0,.933-.023,1.564.292,1.584,1.07.023.876-.667,1.186-1.681,1.149-.329-.012-.658,0-.988,0h-72.5c-.329,0-.658-.009-.988,0-1.005.032-1.7-.256-1.673-1.148.03-.907.8-1.106,1.769-1.07.394.015.791,0,1.185,0Z" fill="#0d1945"/>
    <path id="Path_50" data-name="Path 50" d="M332.908,485.2a8.015,8.015,0,0,0-7.046.821,11.324,11.324,0,0,1-6.248,2.083,5.269,5.269,0,0,1-2.718-.847,1.259,1.259,0,0,1-.545-1.7,1.176,1.176,0,0,1,.073-.124,1.158,1.158,0,0,1,1.518-.618,1.142,1.142,0,0,1,.163.084c1.62,1,3.112.433,4.6-.239a22.489,22.489,0,0,0,2.314-1.233c3.609-2.163,7.234-1.379,10.851-.065a1.218,1.218,0,0,1,.827,1.51,1.244,1.244,0,0,1-.079.2,1.183,1.183,0,0,1-1.458.815,1.255,1.255,0,0,1-.122-.042C334.323,485.658,333.618,485.416,332.908,485.2Z" fill="#0d1945"/>
    <path id="Path_51" data-name="Path 51" d="M308.676,458.167c-.439-1.038-.8-1.869-1.14-2.7a.794.794,0,0,1,.141-.857,17.043,17.043,0,0,1,4.312-4.246Z" fill="#ff7f00"/>
    <g id="High">
      <text id="High-2" data-name="High" transform="translate(252 497.367)" fill="#007de3" font-size="25" font-family="Helvetica"><tspan x="0" y="0">High</tspan></text>
    </g>
    <g id="Group_72-2" data-name="Group 72">
      <path id="Path_69" data-name="Path 69" d="M284.646,499.2h8.6v2.529H290.34v15.183h-2.783V501.733h-2.911Z" fill="#0d1945"/>
      <path id="Path_70" data-name="Path 70" d="M302.157,516.916c-.034-.118-.068-.229-.1-.33a2.429,2.429,0,0,1-.089-.379,4.639,4.639,0,0,1-.051-.582c-.008-.235-.012-.532-.012-.886v-2.782a2.72,2.72,0,0,0-.431-1.746,1.728,1.728,0,0,0-1.391-.507h-.962v7.212h-2.784v-17.28a.432.432,0,0,1,.432-.432h3.769a3.557,3.557,0,0,1,4.125,4.073v1.392q0,2.734-1.822,3.592a2.5,2.5,0,0,1,1.455,1.4,6.361,6.361,0,0,1,.392,2.366v2.735a11.373,11.373,0,0,0,.051,1.151,3.73,3.73,0,0,0,.252,1Zm-3.037-15.183v5.44h1.089a1.751,1.751,0,0,0,1.226-.4,1.943,1.943,0,0,0,.444-1.469v-1.746a2.251,2.251,0,0,0-.342-1.392,1.294,1.294,0,0,0-1.076-.43Z" fill="#0d1945"/>
      <path id="Path_71" data-name="Path 71" d="M317.769,516.916h-2.436a.433.433,0,0,1-.428-.368l-.37-2.479a.433.433,0,0,0-.428-.368h-2.672a.432.432,0,0,0-.427.368l-.426,2.847h-2.555l2.776-17.348a.433.433,0,0,1,.427-.364h3.336a.432.432,0,0,1,.427.364Zm-6.352-5.618H314.1l-1.341-8.958Z" fill="#0d1945"/>
      <path id="Path_72" data-name="Path 72" d="M324.124,510.746a.432.432,0,0,0,.855,0l1.7-11.542h2.556l-2.677,17.346a.432.432,0,0,1-.427.366h-3.408a.431.431,0,0,1-.427-.366L319.617,499.2h2.436a.433.433,0,0,1,.428.369Z" fill="#0d1945"/>
      <path id="Path_73" data-name="Path 73" d="M335.812,506.237a.432.432,0,0,0,.432.432h3.389V509.2h-3.389a.431.431,0,0,0-.432.431v4.324a.432.432,0,0,0,.432.432h4.375v2.531h-7.16a.433.433,0,0,1-.432-.432V499.636a.432.432,0,0,1,.432-.432h7.16v2.529h-4.375a.431.431,0,0,0-.432.432Z" fill="#0d1945"/>
      <path id="Path_74" data-name="Path 74" d="M344.768,499.2h2.785v14.749a.432.432,0,0,0,.431.432h4.148v2.531H345.2a.433.433,0,0,1-.432-.432Z" fill="#0d1945"/>
      <path id="Path_75" data-name="Path 75" d="M354.157,503.454a4.814,4.814,0,0,1,1.024-3.3,4.682,4.682,0,0,1,6.149,0,4.809,4.809,0,0,1,1.026,3.3v.556h-2.632v-.733a1.974,1.974,0,0,0-.367-1.353,1.533,1.533,0,0,0-2.05,0,1.969,1.969,0,0,0-.367,1.353,3.129,3.129,0,0,0,.4,1.606,6.6,6.6,0,0,0,1.013,1.316q.606.621,1.3,1.24a12.4,12.4,0,0,1,1.3,1.355,6.9,6.9,0,0,1,1.012,1.67,5.526,5.526,0,0,1,.4,2.2,4.727,4.727,0,0,1-1.05,3.3,4.749,4.749,0,0,1-6.2,0,4.727,4.727,0,0,1-1.051-3.3v-1.089h2.632v1.266a1.835,1.835,0,0,0,.392,1.341,1.645,1.645,0,0,0,2.1,0,1.835,1.835,0,0,0,.392-1.341,3.155,3.155,0,0,0-.4-1.608,6.779,6.779,0,0,0-1.013-1.316c-.4-.412-.84-.825-1.3-1.239a12.466,12.466,0,0,1-1.3-1.353,6.9,6.9,0,0,1-1.012-1.67A5.527,5.527,0,0,1,354.157,503.454Z" fill="#0d1945"/>
    </g>
  </g>
</svg>
