<svg xmlns="http://www.w3.org/2000/svg" viewBox="0 0 411.25 189.82"><defs><style>.cls-1{fill:#fff;}</style></defs><title>Asset 4</title><g id="Layer_2" data-name="Layer 2"><g id="Layer_1-2" data-name="Layer 1"><path class="cls-1" d="M72,47.5l37.1,140.16H79.7L73.22,158H35.92l-6.48,29.64H0L37.1,47.5Zm-3.73,87.35-13.54-63h-.39l-13.55,63Z"/><path class="cls-1" d="M145.46,145.26a63.3,63.3,0,0,0,.69,9.72,21.7,21.7,0,0,0,2.55,7.65,13.57,13.57,0,0,0,5.1,5.1,18.91,18.91,0,0,0,16.4,0,13.9,13.9,0,0,0,5-5.1,22.11,22.11,0,0,0,2.55-7.65,63.3,63.3,0,0,0,.69-9.72V47.5h28.27v97.76q0,13.35-3.73,22.08a35.27,35.27,0,0,1-10,13.84,33.9,33.9,0,0,1-14.34,6.87A77.37,77.37,0,0,1,162,189.82a87.57,87.57,0,0,1-16.69-1.57,33.94,33.94,0,0,1-14.33-6.38,32.81,32.81,0,0,1-10-13.64q-3.73-8.83-3.73-23V47.5h28.27Z"/><path class="cls-1" d="M306.62,70.66H276v117H247.73v-117H217.11V47.5h89.51Z"/><path class="cls-1" d="M317.32,88.23q1.47-13.44,6.48-23.06a36.32,36.32,0,0,1,14.43-15q9.42-5.4,25.32-5.4t25.32,5.4a36.26,36.26,0,0,1,14.43,15q5,9.61,6.48,23.06a271.25,271.25,0,0,1,1.47,29.35A270.5,270.5,0,0,1,409.78,147a64.72,64.72,0,0,1-6.48,23,34.43,34.43,0,0,1-14.43,14.73q-9.42,5.1-25.32,5.1t-25.32-5.1A34.48,34.48,0,0,1,323.8,170a64.72,64.72,0,0,1-6.48-23,270.5,270.5,0,0,1-1.47-29.45A271.25,271.25,0,0,1,317.32,88.23Zm27.48,53.4a67,67,0,0,0,2.75,16.09c1.38,4.12,3.34,7.14,5.89,9s5.92,2.85,10.11,2.85,7.56-.95,10.11-2.85,4.51-4.91,5.89-9a67,67,0,0,0,2.75-16.09q.68-9.91.68-24t-.68-24a68.36,68.36,0,0,0-2.75-16.1q-2.07-6.27-5.89-9.12t-10.11-2.85q-6.29,0-10.11,2.85t-5.89,9.12a68.36,68.36,0,0,0-2.75,16.1q-.69,9.83-.68,24T344.8,141.63Z"/><circle class="cls-1" cx="261.62" cy="16.58" r="16.58"/></g></g></svg>